HIERARCHY
ROOT Hips
{
  OFFSET 1.44216e-005 102.336 -0.101585
  CHANNELS 6 Xposition Yposition Zposition Zrotation Xrotation Yrotation
  JOINT RightUpLeg
  {
    OFFSET -8.9458 -8.66707 0.101652
    CHANNELS 6 Xposition Yposition Zposition Zrotation Xrotation Yrotation
    JOINT RightLeg
    {
      OFFSET 0 -44.4227 1.3727
      CHANNELS 6 Xposition Yposition Zposition Zrotation Xrotation Yrotation
      JOINT RightFoot
      {
        OFFSET 0.253549 -42.0924 -1.46059
        CHANNELS 6 Xposition Yposition Zposition Zrotation Xrotation Yrotation
        JOINT RightToes
        {
          OFFSET 0.04 -4.41509 8.4991
          CHANNELS 6 Xposition Yposition Zposition Zrotation Xrotation Yrotation
          End Site
          {
            OFFSET -0.08 -0.137448 9.77979
          }
        }
      }
    }
  }
  JOINT Spine
  {
    OFFSET 0 11.8905 0
    CHANNELS 6 Xposition Yposition Zposition Zrotation Xrotation Yrotation
    JOINT Spine1
    {
      OFFSET 0 25.6574 0.127663
      CHANNELS 6 Xposition Yposition Zposition Zrotation Xrotation Yrotation
      JOINT HEad
      {
        OFFSET 0 8.73416 0.011341
        CHANNELS 6 Xposition Yposition Zposition Zrotation Xrotation Yrotation
        End Site
        {
          OFFSET -0.29 12.7742 2.51395
        }
      }
      JOINT LeftShoulder1
      {
        OFFSET 8.99 -0.362252 -0.22
        CHANNELS 6 Xposition Yposition Zposition Zrotation Xrotation Yrotation
        JOINT LeftArm
        {
          OFFSET 10.2827 -0.00337999 0.322123
          CHANNELS 6 Xposition Yposition Zposition Zrotation Xrotation Yrotation
          JOINT LeftForeArm
          {
            OFFSET 26.2597 0.099144 -1.42434
            CHANNELS 6 Xposition Yposition Zposition Zrotation Xrotation Yrotation
            JOINT LeftHand
            {
              OFFSET 22.0886 0.0853718 1.02216
              CHANNELS 6 Xposition Yposition Zposition Zrotation Xrotation Yrotation
              End Site
              {
                OFFSET 13.4179 -0.600076 1.50291
              }
            }
          }
        }
      }
      JOINT RightShoulder
      {
        OFFSET -8.99 -0.362252 -0.22
        CHANNELS 6 Xposition Yposition Zposition Zrotation Xrotation Yrotation
        JOINT RightArm
        {
          OFFSET -10.2827 -0.00338 0.322123
          CHANNELS 6 Xposition Yposition Zposition Zrotation Xrotation Yrotation
          JOINT RightForeArm
          {
            OFFSET -26.364 0.099144 -1.42434
            CHANNELS 6 Xposition Yposition Zposition Zrotation Xrotation Yrotation
            JOINT RightHand
            {
              OFFSET -22.0307 0.0853717 1.02216
              CHANNELS 6 Xposition Yposition Zposition Zrotation Xrotation Yrotation
              End Site
              {
                OFFSET -13.3273 -0.600075 1.50291
              }
            }
          }
        }
      }
    }
  }
  JOINT LeftUpLeg
  {
    OFFSET 8.9458 -8.66707 0.101652
    CHANNELS 6 Xposition Yposition Zposition Zrotation Xrotation Yrotation
    JOINT LeftLeg
    {
      OFFSET 0 -44.4227 1.3727
      CHANNELS 6 Xposition Yposition Zposition Zrotation Xrotation Yrotation
      JOINT LeftFoot
      {
        OFFSET -0.253549 -42.0924 -1.46059
        CHANNELS 6 Xposition Yposition Zposition Zrotation Xrotation Yrotation
        JOINT LeftToes
        {
          OFFSET -0.04 -4.41509 8.4991
          CHANNELS 6 Xposition Yposition Zposition Zrotation Xrotation Yrotation
          End Site
          {
            OFFSET 0.08 -0.047448 9.77979
          }
        }
      }
    }
  }
}
MOTION
Frames:	4
Frame Time:	0.0333333
6.55376 44.895 -39.3676 -12.8529 -30.9852 -14.8254 -8.9458 -8.66707 0.101652 -26.5431 -65.9298 -24.647 3.19744e-014 -44.4227 1.3727 165.832 65.2514 -153.573 0.253549 -42.0924 -1.46059 -8.60106 -11.5053 -0.864972 0.04 -4.41509 8.4991 0.0462048 0.000530889 0.662642 9.85878e-014 11.8905 1.06581e-014 26.274 25.8915 -3.56679 0 25.6574 0.127663 -15.5303 10.9697 5.75388 -1.59872e-014 8.73416 0.011341 -5.80419 -24.3073 -3.6853 8.99 -0.362252 -0.22 -1.2424e-016 7.95139e-016 7.95139e-016 10.2827 -0.00337999 0.322123 -84.0277 0.71549 -90.0141 26.2597 0.099144 -1.42434 -0.622281 31.6705 -0.758746 22.0875 0.0853652 1.02232 24.3319 3.17919 -19.8026 -8.99 -0.362252 -0.22 -0.00680421 0.217195 8.2357e-005 -10.2827 -0.00338 0.322123 78.5752 0.440135 82.6966 -26.364 0.099144 -1.42434 0.391315 24.1604 25.6746 -20.9519 0.0853864 1.09538 -22.618 7.4469 5.57299 8.9458 -8.66707 0.101652 38.1068 -57.8748 30.2264 2.13163e-014 -44.4227 1.3727 -173.603 60.4019 169.799 -0.253549 -42.0924 -1.46059 18.2958 -38.5462 6.12498 -0.04 -4.41509 8.4991 -1.32481e-009 8.7523e-006 -1.47115e-008 
6.53208 44.8956 -39.3487 -12.809 -30.916 -14.8186 -8.9458 -8.66707 0.101652 -26.6615 -66.0225 -24.7647 3.55271e-014 -44.4227 1.3727 165.887 65.2106 -153.616 0.253549 -42.0924 -1.46059 -8.62308 -11.5091 -0.865457 0.04 -4.41509 8.4991 0.0462048 0.000530889 0.662642 9.85878e-014 11.8905 3.55271e-015 26.0736 25.9651 -3.55085 3.55271e-015 25.6574 0.127663 -15.3077 11.0097 5.57905 -1.59872e-014 8.73416 0.011341 -5.65113 -24.5864 -3.62632 8.99 -0.362252 -0.22 -2.23633e-016 -7.95139e-016 5.96354e-016 10.2827 -0.00337999 0.322123 -84.0018 0.616441 -90.1661 26.2597 0.099144 -1.42434 -0.650556 31.3467 -0.634443 22.0879 0.0853655 1.02229 24.371 3.24985 -19.5248 -8.99 -0.362252 -0.22 -0.00680421 0.217195 8.2357e-005 -10.2827 -0.00338 0.322123 78.6232 0.611687 82.8904 -26.364 0.099144 -1.42434 0.38438 24.1702 25.7513 -20.9466 0.0853865 1.09573 -22.5627 7.44955 5.58615 8.9458 -8.66707 0.101652 38.1885 -57.9112 30.3096 2.4869e-014 -44.4227 1.3727 -173.597 60.4095 169.765 -0.253549 -42.0924 -1.46059 18.29 -38.5685 6.12939 -0.04 -4.41509 8.4991 -1.32481e-009 8.7523e-006 -1.47115e-008 
6.49435 44.9095 -39.3021 -12.7515 -30.8375 -14.7816 -8.9458 -8.66707 0.101652 -26.7594 -66.1006 -24.8582 3.19744e-014 -44.4227 1.3727 165.911 65.1244 -153.656 0.253549 -42.0924 -1.46059 -8.64428 -11.5704 -0.866084 0.04 -4.41509 8.4991 0.0462048 0.000530889 0.662642 9.9476e-014 11.8905 7.10543e-015 25.9815 26.0279 -3.58231 0 25.6574 0.127663 -15.1926 11.0962 5.3821 -1.5099e-014 8.73416 0.011341 -5.64361 -24.9808 -3.95657 8.99 -0.362252 -0.22 1.11816e-016 0 -0 10.2827 -0.00337999 0.322123 -83.9123 0.450041 -90.5048 26.2597 0.099144 -1.42434 -0.663714 31.6971 -0.496842 22.0883 0.0853656 1.02226 24.6306 3.32838 -19.0255 -8.99 -0.362252 -0.22 -0.00680421 0.217195 8.2357e-005 -10.2827 -0.00338 0.322123 78.6473 0.819226 83.1215 -26.364 0.099144 -1.42434 0.404812 24.1261 25.9365 -20.9325 0.0853878 1.09661 -22.4364 7.51395 5.39995 8.9458 -8.66707 0.101652 38.2676 -57.9628 30.386 2.66454e-014 -44.4227 1.3727 -173.671 60.3964 169.797 -0.253549 -42.0924 -1.46059 18.2879 -38.6073 6.13463 -0.04 -4.41509 8.4991 -1.32481e-009 8.7523e-006 -1.47115e-008 
6.50291 44.9275 -39.2689 -12.731 -30.77 -14.795 -8.9458 -8.66707 0.101652 -26.8095 -66.1317 -24.9098 3.19744e-014 -44.4227 1.3727 165.93 65.1548 -153.632 0.253549 -42.0924 -1.46059 -8.63869 -11.5927 -0.866885 0.04 -4.41509 8.4991 0.0462048 0.000530889 0.662642 1.01252e-013 11.8905 1.06581e-014 26.0209 26.0846 -3.68163 3.55271e-015 25.6574 0.127663 -15.1354 11.1085 5.17149 -1.5099e-014 8.73416 0.011341 -5.507 -25.1092 -4.1606 8.99 -0.362252 -0.22 9.93923e-016 -7.95139e-016 -0 10.2827 -0.00337999 0.322123 -83.8569 0.25117 -90.673 26.2597 0.099144 -1.42434 -0.671375 32.304 -0.371201 22.0886 0.0853656 1.02224 25.4594 3.21672 -18.6965 -8.99 -0.362252 -0.22 -0.00680421 0.217195 8.2357e-005 -10.2827 -0.00338 0.322123 78.7461 1.10892 83.3063 -26.364 0.099144 -1.42434 0.350843 24.222 25.9995 -20.9296 0.0853864 1.09681 -22.2958 7.56132 5.28142 8.9458 -8.66707 0.101652 38.2614 -57.9906 30.3977 2.84217e-014 -44.4227 1.3727 -173.585 60.3441 169.793 -0.253549 -42.0924 -1.46059 18.2624 -38.6726 6.14101 -0.04 -4.41509 8.4991 -1.32481e-009 8.7523e-006 -1.47115e-008 
